
<svg xmlns="http://www.w3.org/2000/svg" version="1.1" xmlns:xlink="http://www.w3.org/1999/xlink" preserveAspectRatio="none" x="0px" y="0px" width="200px" height="200px" viewBox="0 0 200 200">
<defs>
<g id="Layer1_0_FILL">
<path fill="#D0403F" stroke="none" d="
M 166.4 127.05
Q 169.4 127.05 169.4 124.05
L 169.4 99.45 151.3 77.7 123.05 77.7
Q 120.05 77.7 120.05 80.7
L 120.05 124.05
Q 120.05 127.05 123.05 127.05
L 135.55 127.05
Q 136.1630859375 126.1869140625 136.95 125.4 140.2 122.15 144.75 122.15 149.35 122.15 152.6 125.4 153.3869140625 126.1869140625 153.95 127.05
L 166.4 127.05
M 129.05 88.95
Q 129.05 85.95 132.05 85.95
L 145.85 85.95 157.8 100.2 157.8 100.45
Q 157.8 103.45 154.8 103.45
L 132.05 103.45
Q 129.05 103.45 129.05 100.45
L 129.05 88.95 Z"/>

<path fill="#FFFFFF" stroke="none" d="
M 132.05 85.95
Q 129.05 85.95 129.05 88.95
L 129.05 100.45
Q 129.05 103.45 132.05 103.45
L 154.8 103.45
Q 157.8 103.45 157.8 100.45
L 157.8 100.2 145.85 85.95 132.05 85.95
M 98.55 96.45
Q 98.55 86.9 91.8 80.15 85.1 73.45 75.55 73.45 66 73.45 59.25 80.15 52.55 86.9 52.55 96.45 52.55 106 59.25 112.7 66 119.45 75.55 119.45 85.1 119.45 91.8 112.7 98.55 106 98.55 96.45 Z"/>

<path fill="#0053A3" stroke="none" d="
M 116.3 69.95
Q 116.3 66.95 113.3 66.95
L 36.05 66.95
Q 33.05 66.95 33.05 69.95
L 33.05 124.45
Q 33.05 127.45 36.05 127.45
L 51.55 127.45
Q 52.2326171875 126.3673828125 53.2 125.4 56.45 122.15 61 122.15 65.6 122.15 68.85 125.4 69.8173828125 126.3673828125 70.5 127.45
L 113.3 127.45
Q 116.3 127.45 116.3 124.45
L 116.3 69.95
M 91.8 80.15
Q 98.55 86.9 98.55 96.45 98.55 106 91.8 112.7 85.1 119.45 75.55 119.45 66 119.45 59.25 112.7 52.55 106 52.55 96.45 52.55 86.9 59.25 80.15 66 73.45 75.55 73.45 85.1 73.45 91.8 80.15 Z"/>

<path fill="#000000" stroke="none" d="
M 52.85 133.2
Q 52.85 136.6 55.25 139.05 57.6 141.4 61 141.4 64.4 141.4 66.8 139.05 69.2 136.6 69.2 133.2 69.2 129.8 66.8 127.45 64.4 125.05 61 125.05 57.6 125.05 55.25 127.45 52.85 129.8 52.85 133.2
M 139.4 127.05
Q 139.2048828125 127.2408203125 139 127.45 136.6 129.8 136.6 133.2 136.6 136.6 139 139.05 141.35 141.4 144.75 141.4 148.15 141.4 150.55 139.05 152.95 136.6 152.95 133.2 152.95 129.8 150.55 127.45 150.3408203125 127.2408203125 150.1 127.05 147.8537109375 125.05 144.75 125.05 141.6462890625 125.05 139.4 127.05 Z"/>
</g>

<g id="Layer0_0_FILL">
<path fill="#D0403F" stroke="none" d="
M 86.5 97.3
Q 84.95 95.05 82.65 94.05 80.4 93.05 75.5 92.05 72.55 91.5 71.75 90.7 70.9 89.9 70.9 88.75 70.9 85.85 75.35 85.85 79.55 85.85 80.8 89.65
L 87.15 87.55
Q 84.8 80.8 77 80.1
L 77 76.15 72.95 76.15 72.95 80.15
Q 68.8 80.65 66.15 83.45 63.55 86.2 63.55 90.15 63.55 93.5 65.6 96.05 67.7 98.55 74.85 100 78.15 100.7 79.3 101.45 80.45 102.25 80.45 103.65 80.45 105.05 79.15 106.05 77.9 107 75.3 107 70 107 68.8 102.55
L 61.85 104.15
Q 63.85 111.95 72.95 112.9
L 72.95 117.7 77 117.7 77 112.9
Q 82.55 112.4 85.3 109.3 88.05 106.2 88.05 102.35 88.05 99.55 86.5 97.3 Z"/>
</g>
</defs>

<g transform="matrix( 1, 0, 0, 1, 0,0) ">
<use xlink:href="#Layer1_0_FILL"/>
</g>

<g transform="matrix( 1, 0, 0, 1, 0,0) ">
<use xlink:href="#Layer0_0_FILL"/>
</g>
</svg>
