
<svg xmlns="http://www.w3.org/2000/svg" version="1.1" xmlns:xlink="http://www.w3.org/1999/xlink" preserveAspectRatio="none" x="0px" y="0px" width="200px" height="200px" viewBox="0 0 200 200">
<defs>
<g id="Layer2_0_FILL">
<path fill="#D14140" stroke="none" d="
M 160.5 94
Q 160.49453125 67.883984375 142 49.4 123.6185546875 31.0080078125 97.5 31 71.3845703125 30.996484375 52.9 49.4
L 52.9 49.4
Q 34.496484375 67.8845703125 34.5 94 34.5080078125 120.1185546875 52.9 138.5 71.383984375 156.99453125 97.5 157 123.613671875 156.99609375 142 138.55
L 142.05 138.5
Q 160.49609375 120.113671875 160.5 94
M 134.95 56.45
Q 150.5056640625 72.0162109375 150.5 94 150.5037109375 115.9685546875 134.95 131.45
L 134.95 131.45
Q 119.4685546875 147.0037109375 97.5 147 75.5162109375 147.0056640625 59.95 131.45 44.4923828125 115.9818359375 44.5 94 44.5033203125 72.0330078125 59.95 56.5
L 60 56.45
Q 75.5330078125 41.0033203125 97.5 41 119.4818359375 40.9923828125 134.95 56.45
M 136 127.3
Q 141.45 121.9 141.45 114.15 141.45 106.5 136 101.05 130.6 95.6 122.9 95.6 115.2 95.6 109.75 101.05 104.35 106.5 104.35 114.15 104.35 121.9 109.75 127.3 115.2 132.7 122.9 132.7 130.6 132.7 136 127.3
M 133.9 109.05
Q 135.9658203125 109.0552734375 137.4 110.5 138.8947265625 111.9841796875 138.9 114.05 138.8947265625 116.1158203125 137.4 117.55 135.9658203125 119.0447265625 133.9 119.05
L 128.55 119.05 128.55 124.4
Q 128.5447265625 126.4658203125 127.05 127.9 125.6158203125 129.3947265625 123.55 129.4 121.4841796875 129.3947265625 120 127.9 118.5552734375 126.4658203125 118.55 124.4
L 118.55 119.05 113.2 119.05
Q 111.1341796875 119.0447265625 109.65 117.55 108.2052734375 116.1158203125 108.2 114.05 108.2052734375 111.9841796875 109.65 110.5 111.1341796875 109.0552734375 113.2 109.05
L 118.55 109.05 118.55 103.7
Q 118.5552734375 101.6341796875 120 100.15 121.4841796875 98.7052734375 123.55 98.7 125.6158203125 98.7052734375 127.05 100.15 128.5447265625 101.6341796875 128.55 103.7
L 128.55 109.05 133.9 109.05 Z"/>

<path fill="#0053A3" stroke="none" d="
M 113.2 79.9
Q 119.1 74.05 119.1 65.7 119.1 57.35 113.2 51.45 107.35 45.6 99 45.6 90.65 45.6 84.75 51.45 78.9 57.35 78.9 65.7 78.9 74.05 84.75 79.9 90.65 85.8 99 85.8 107.35 85.8 113.2 79.9
M 111.9 93.3
Q 104.24765625 88.45 94.5 88.45 80.9 88.45 71.25 98 61.7 107.65 61.7 121.25 61.7 123.3642578125 61.9 125.35 63.081640625 132.0431640625 69.75 133.2
L 107.55 133.2
Q 106.9052734375 132.6052734375 106.25 131.95 99.15 124.85 99.15 114.75 99.15 104.7 106.25 97.6 108.875390625 94.974609375 111.9 93.3 Z"/>

<path fill="#FFFFFF" stroke="none" d="
M 137.4 110.5
Q 135.9658203125 109.0552734375 133.9 109.05
L 128.55 109.05 128.55 103.7
Q 128.5447265625 101.6341796875 127.05 100.15 125.6158203125 98.7052734375 123.55 98.7 121.4841796875 98.7052734375 120 100.15 118.5552734375 101.6341796875 118.55 103.7
L 118.55 109.05 113.2 109.05
Q 111.1341796875 109.0552734375 109.65 110.5 108.2052734375 111.9841796875 108.2 114.05 108.2052734375 116.1158203125 109.65 117.55 111.1341796875 119.0447265625 113.2 119.05
L 118.55 119.05 118.55 124.4
Q 118.5552734375 126.4658203125 120 127.9 121.4841796875 129.3947265625 123.55 129.4 125.6158203125 129.3947265625 127.05 127.9 128.5447265625 126.4658203125 128.55 124.4
L 128.55 119.05 133.9 119.05
Q 135.9658203125 119.0447265625 137.4 117.55 138.8947265625 116.1158203125 138.9 114.05 138.8947265625 111.9841796875 137.4 110.5 Z"/>
</g>
</defs>

<g transform="matrix( 1, 0, 0, 1, 0,0) ">
<use xlink:href="#Layer2_0_FILL"/>
</g>
</svg>
