
<svg xmlns="http://www.w3.org/2000/svg" version="1.1" xmlns:xlink="http://www.w3.org/1999/xlink" preserveAspectRatio="none" x="0px" y="0px" width="200px" height="200px" viewBox="0 0 200 200">
<defs>
<g id="Layer1_0_FILL">
<path fill="#0053A3" stroke="none" d="
M 144.8 51.15
Q 125.65 32 98.5 32 71.35 32 52.15 51.15 33 70.35 33 97.5 33 124.65 52.15 143.8 71.35 163 98.5 163 125.65 163 144.8 143.8 164 124.65 164 97.5 164 70.35 144.8 51.15
M 97.05 88.3
Q 95.7138671875 88.191796875 95.7 86.95
L 95.7 74.1 110.95 88.3 97.05 88.3
M 93.2 86.95
Q 93.070703125 90.4150390625 95.8 90.9 96.056640625 90.9314453125 96.3 90.95
L 111.55 90.95 111.55 136.2
Q 111.63125 139.90625 108.05 139.95
L 64.3 139.95
Q 61.2212890625 140.2638671875 61.05 136.7
L 61.05 77.95
Q 61.174609375 74.549609375 64.2 74.05
L 93.2 74.05 93.2 86.95
M 83.6 67.75
Q 83.65 65 86.1 64.6
L 109.35 64.6 109.35 74.95
Q 109.2 77.7 111.45 78.1 111.65 78.15 111.85 78.15
L 124.05 78.15 124.05 114.4
Q 124.15 117.35 121.25 117.4
L 119.35 117.4 119.35 81.85 108.75 81.85
Q 105.5 81.7 105.15 78
L 105.15 68.95 83.6 68.95 83.6 67.75
M 112.45 76
Q 111.35 75.95 111.35 74.95
L 111.35 64.65 123.55 76 112.45 76
M 120.85 68.1
Q 117.6 67.95 117.25 64.25
L 117.25 55.2 95.7 55.2 95.7 54
Q 95.75 51.25 98.2 50.85
L 121.45 50.85 121.45 61.2
Q 121.3 63.95 123.55 64.35 123.75 64.4 123.95 64.4
L 136.15 64.4 136.15 100.65
Q 136.25 103.6 133.35 103.65
L 131.45 103.65 131.45 68.1 120.85 68.1
M 124.55 62.25
Q 123.45 62.2 123.45 61.2
L 123.45 50.9 135.65 62.25 124.55 62.25
M 66.85 103.65
L 66.85 106.85 105.7 106.85 105.7 103.65 66.85 103.65
M 66.85 111.65
L 66.85 114.85 105.7 114.85 105.7 111.65 66.85 111.65
M 66.85 129.65
L 66.85 132.85 105.7 132.85 105.7 129.65 66.85 129.65
M 66.85 120.65
L 66.85 123.85 105.7 123.85 105.7 120.65 66.85 120.65
M 105.7 98.75
L 105.7 95.55 66.85 95.55 66.85 98.75 105.7 98.75
M 87.95 90.75
L 87.95 87.55 66.85 87.55 66.85 90.75 87.95 90.75
M 87.95 82.65
L 87.95 79.45 66.85 79.45 66.85 82.65 87.95 82.65 Z"/>

<path fill="#FFFFFF" stroke="none" d="
M 123.45 61.2
Q 123.45 62.2 124.55 62.25
L 135.65 62.25 123.45 50.9 123.45 61.2
M 117.25 64.25
Q 117.6 67.95 120.85 68.1
L 131.45 68.1 131.45 103.65 133.35 103.65
Q 136.25 103.6 136.15 100.65
L 136.15 64.4 123.95 64.4
Q 123.75 64.4 123.55 64.35 121.3 63.95 121.45 61.2
L 121.45 50.85 98.2 50.85
Q 95.75 51.25 95.7 54
L 95.7 55.2 117.25 55.2 117.25 64.25
M 111.35 74.95
Q 111.35 75.95 112.45 76
L 123.55 76 111.35 64.65 111.35 74.95
M 86.1 64.6
Q 83.65 65 83.6 67.75
L 83.6 68.95 105.15 68.95 105.15 78
Q 105.5 81.7 108.75 81.85
L 119.35 81.85 119.35 117.4 121.25 117.4
Q 124.15 117.35 124.05 114.4
L 124.05 78.15 111.85 78.15
Q 111.65 78.15 111.45 78.1 109.2 77.7 109.35 74.95
L 109.35 64.6 86.1 64.6
M 95.8 90.9
Q 93.070703125 90.4150390625 93.2 86.95
L 93.2 74.05 64.2 74.05
Q 61.174609375 74.549609375 61.05 77.95
L 61.05 136.7
Q 61.2212890625 140.2638671875 64.3 139.95
L 108.05 139.95
Q 111.63125 139.90625 111.55 136.2
L 111.55 90.95 96.3 90.95
Q 96.056640625 90.9314453125 95.8 90.9
M 87.95 79.45
L 87.95 82.65 66.85 82.65 66.85 79.45 87.95 79.45
M 87.95 87.55
L 87.95 90.75 66.85 90.75 66.85 87.55 87.95 87.55
M 105.7 95.55
L 105.7 98.75 66.85 98.75 66.85 95.55 105.7 95.55
M 66.85 123.85
L 66.85 120.65 105.7 120.65 105.7 123.85 66.85 123.85
M 66.85 132.85
L 66.85 129.65 105.7 129.65 105.7 132.85 66.85 132.85
M 66.85 114.85
L 66.85 111.65 105.7 111.65 105.7 114.85 66.85 114.85
M 66.85 106.85
L 66.85 103.65 105.7 103.65 105.7 106.85 66.85 106.85
M 95.7 86.95
Q 95.7138671875 88.191796875 97.05 88.3
L 110.95 88.3 95.7 74.1 95.7 86.95 Z"/>
</g>
</defs>

<g transform="matrix( 1, 0, 0, 1, 0,0) ">
<use xlink:href="#Layer1_0_FILL"/>
</g>
</svg>
