
<svg xmlns="http://www.w3.org/2000/svg" version="1.1" xmlns:xlink="http://www.w3.org/1999/xlink" preserveAspectRatio="none" x="0px" y="0px" width="200px" height="200px" viewBox="0 0 200 200">
<defs>
<g id="Layer0_0_FILL">
<path fill="#D14140" stroke="none" d="
M 105.45 34.2
Q 104.7462890625 34.9607421875 104.75 36
L 105.75 46.5
Q 105.75 47.55 106.5 48.3 107.2 49 108.25 49 109.25 49 110.05 48.3 110.75 47.5 110.75 46.5
L 109.75 36
Q 109.753515625 34.9607421875 109 34.2 108.2890625 33.4962890625 107.25 33.5 106.2107421875 33.4962890625 105.45 34.2
M 99.75 49.2
Q 99.839453125 48.1974609375 99.15 47.4
L 93.15 40.15
Q 92.5041015625 39.34921875 91.45 39.25 90.446875 39.1583984375 89.65 39.8 88.8486328125 40.49375 88.75 41.5 88.6603515625 42.5525390625 89.3 43.35
L 95.3 50.6
Q 95.995703125 51.40078125 97 51.5 98.053125 51.5916015625 98.85 50.9 99.6513671875 50.25625 99.75 49.2
M 135.1 46.25
Q 134.102734375 46.1419921875 133.25 46.75
L 124.75 53.25
Q 123.958984375 53.9046875 123.8 54.9 123.6912109375 55.94921875 124.3 56.75 124.95390625 57.5931640625 125.95 57.7 126.997265625 57.8580078125 127.8 57.2
L 136.3 50.7
Q 137.141015625 50.0953125 137.25 49.05 137.408984375 48.05078125 136.75 47.2 136.1462890625 46.40703125 135.1 46.25
M 123 35.85
Q 122.04609375 36.200390625 121.55 37.1
L 116.8 46.6
Q 116.3548828125 47.548046875 116.65 48.5 116.999609375 49.50546875 117.9 49.95 118.847265625 50.446484375 119.8 50.1 120.80390625 49.799609375 121.25 48.85
L 126 39.35
Q 126.4951171875 38.451953125 126.15 37.45 125.850390625 36.49453125 124.9 36 124.002734375 35.553515625 123 35.85 Z"/>

<path fill="#0053A3" stroke="none" d="
M 150.05 71.15
Q 149.31640625 68.173828125 146.65 66.55 143.9783203125 64.9701171875 140.95 65.7 137.9646484375 66.4884765625 136.35 69.15
L 127.9 83.3
Q 120.821875 90.1662109375 111.8 83.4
L 76.45 49.8
Q 74.21796875 47.6826171875 71.1 47.75 68.0265625 47.823828125 65.85 50.05 63.7263671875 52.3296875 63.8 55.4 63.876171875 58.5171875 66.1 60.65
L 111.6 103.9
Q 117.328125 118.4740234375 101.55 121.4 101.1900390625 133.941796875 88.75 134.25 88.333984375 144.876171875 80.5 147.05 91.1171875 161.839453125 105.5 157.8
L 132.3 144.8
Q 149.3376953125 130.5978515625 132.3 105.3
L 149.25 76.85
Q 150.8390625 74.1734375 150.05 71.15
M 71.55 88.2
Q 71.6427734375 91.3111328125 73.9 93.45
L 97.4 115.7
Q 99.676171875 117.83359375 102.75 117.75 105.8654296875 117.6615234375 108 115.4 110.137890625 113.1283203125 110.05 110 109.9572265625 106.9388671875 107.7 104.8
L 84.2 82.55
Q 81.923828125 80.41640625 78.8 80.5 75.7345703125 80.5884765625 73.6 82.85 71.462109375 85.121875 71.55 88.2
M 66.3 94
Q 63.2052734375 94.1029296875 61.05 96.35 58.9478515625 98.651171875 59.05 101.75 59.160546875 104.8435546875 61.4 106.95
L 84.65 128.75
Q 86.958984375 130.9009765625 90.05 130.8 93.1447265625 130.6970703125 95.25 128.4 97.401953125 126.148828125 97.3 123.05 97.1892578125 119.9564453125 94.9 117.8
L 71.65 96
Q 69.391015625 93.8990234375 66.3 94
M 56.6 110.55
Q 53.514453125 110.75390625 51.45 113.05 49.387109375 115.40546875 49.55 118.5 49.748828125 121.583984375 52.05 123.65
L 72.3 141.65
Q 74.650390625 143.711328125 77.75 143.5 80.8353515625 143.3462890625 82.9 141 84.962890625 138.69453125 84.75 135.6 84.601171875 132.516015625 82.3 130.45
L 62.05 112.45
Q 59.699609375 110.388671875 56.6 110.55 Z"/>
</g>
</defs>

<g transform="matrix( 1, 0, 0, 1, 0,0) ">
<use xlink:href="#Layer0_0_FILL"/>
</g>
</svg>
