
<svg xmlns="http://www.w3.org/2000/svg" version="1.1" xmlns:xlink="http://www.w3.org/1999/xlink" preserveAspectRatio="none" x="0px" y="0px" width="200px" height="200px" viewBox="0 0 200 200">
<defs>
<path id="Layer0_0_1_STROKES" stroke="#D14140" stroke-width="10" stroke-linejoin="round" stroke-linecap="round" fill="none" d="
M 123.8 115.8
L 107.05 99.05 107.05 63.75"/>

<path id="Layer0_0_2_STROKES" stroke="#0053A3" stroke-width="10" stroke-linejoin="round" stroke-linecap="round" fill="none" d="
M 33.05 73.75
L 58.025 73.75
Q 61.83203125 66.81796875 67.85 60.8 84.2 44.45 107.3 44.45 130.4 44.45 146.75 60.8 163.1 77.15 163.1 100.25 163.1 123.35 146.75 139.7 130.4 156.05 107.3 156.05 84.2 156.05 67.85 139.7 60.4638671875 132.3138671875 56.425 123.55
L 47 123.55
M 19 98.5
L 51.525 98.5 73.8 98.5
M 53.85 83.75
Q 55.4033203125 78.5328125 58.025 73.75
M 51.925 107.5
Q 51.5 103.9623046875 51.5 100.25 51.5 99.3703125 51.525 98.5
M 28.5 123.8
L 33.05 123.8
M 147.05 100.5
L 149.3 100.5
M 105.05 142.3
L 106.8 142.3
M 56.425 123.55
L 84.3 123.55"/>
</defs>

<g transform="matrix( 1, 0, 0, 1, 0,0) ">
<use xlink:href="#Layer0_0_1_STROKES"/>

<use xlink:href="#Layer0_0_2_STROKES"/>
</g>
</svg>
