
<svg xmlns="http://www.w3.org/2000/svg" version="1.1" xmlns:xlink="http://www.w3.org/1999/xlink" preserveAspectRatio="none" x="0px" y="0px" width="200px" height="200px" viewBox="0 0 200 200">
<defs>
<g id="Layer0_0_FILL">
<path fill="#0053A3" fill-opacity="0.18823529411764706" stroke="none" d="
M 134.15 132
L 134.15 132 129.9 135.35
Q 126.012890625 138.2263671875 122 140.75 121.851953125 140.850390625 121.65 140.85 116.0390625 141.7919921875 110.15 141.95 95.9501953125 142.2501953125 82.5 141.45 80.5306640625 141.722265625 80.25 143.25
L 85.25 148.25
Q 85.546484375 148.5392578125 85.55 148.95 85.546484375 149.3607421875 85.25 149.65
L 78.9 156
Q 87.358203125 159.25 97.15 159.25 118.2 159.25 133.1 144.35 135.5990234375 141.8509765625 137.65 139.15 144.7490234375 130.0931640625 146.95 119 141.5626953125 126.2193359375 134.15 132
M 61.9 71.75
L 64.2 74.05
Q 64.496484375 74.3392578125 64.5 74.75 64.496484375 75.1607421875 64.2 75.45 63.9107421875 75.746484375 63.5 75.75 63.0892578125 75.746484375 62.8 75.45
L 60.5 73.15
Q 46.3 87.8462890625 46.3 108.4 46.3 113.587890625 47.2 118.4
L 50.6 115
Q 50.8904296875 114.702734375 51.3 114.7 51.7087890625 114.70234375 52 115
L 56.1 119.1
Q 56.1779296875 119.0455078125 56.25 118.95
L 65.5 110.1
Q 65.5376953125 110.099609375 65.55 110.05 70.2978515625 106.1962890625 77.2 105.75
L 77.2 61.45
Q 68.8880859375 64.998046875 61.9 71.75
M 140.55 81.7
Q 139.2404296875 79.6263671875 137.7 77.65
L 137.7 103.25
Q 142.1693359375 97.8521484375 146.55 95.85 145.16640625 90.1833984375 142.45 85.05 141.5875 83.3453125 140.55 81.7 Z"/>

<path fill="#0053A3" stroke="none" d="
M 159.8 98.85
Q 160.005859375 98.5365234375 159.9 98.15 159.84765625 97.7736328125 159.5 97.55 153.1388671875 92.85078125 146.55 95.85 142.1693359375 97.8521484375 137.7 103.25 136.7896484375 104.3580078125 135.85 105.6 135.36484375 106.3072265625 134.85 107.05 128.9119140625 108.1951171875 123.85 112.05 123.6431640625 112.209375 123.55 112.4 121.6451171875 110.73515625 118.3 110.35 118.26171875 110.3466796875 118.2 110.35
L 105.5 110.35
Q 99.8078125 106.4103515625 92.8 105.7 92.748046875 105.6974609375 92.7 105.7
L 79.2 105.7 78.4 105.7
Q 77.805078125 105.7126953125 77.2 105.75 70.2978515625 106.1962890625 65.55 110.05 65.5376953125 110.099609375 65.5 110.1
L 56.25 118.95
Q 56.1779296875 119.0455078125 56.1 119.1
L 52 115
Q 51.7087890625 114.70234375 51.3 114.7 50.8904296875 114.702734375 50.6 115
L 47.2 118.4 36.6 129.05
Q 36.304296875 129.341015625 36.3 129.75 36.3046875 130.159765625 36.6 130.45
L 69.85 163.7
Q 70.1392578125 163.996484375 70.55 164 70.9607421875 163.996484375 71.25 163.7
L 78.9 156 85.25 149.65
Q 85.546484375 149.3607421875 85.55 148.95 85.546484375 148.5392578125 85.25 148.25
L 80.25 143.25
Q 80.5306640625 141.722265625 82.5 141.45 95.9501953125 142.2501953125 110.15 141.95 116.0390625 141.7919921875 121.65 140.85 121.851953125 140.850390625 122 140.75 126.012890625 138.2263671875 129.9 135.35
L 134.15 132 134.15 132
Q 141.5626953125 126.2193359375 146.95 119 148.1740234375 117.4146484375 149.25 115.75
L 149.3 115.7 159.8 98.85
M 147 98
Q 152.4138671875 95.469140625 157.6 98.65
L 147.65 114.55 147.6 114.65 147.6 114.65
Q 141.7033203125 123.5591796875 132.9 130.4
L 132.95 130.4 128.7 133.75
Q 124.954296875 136.523828125 121.1 138.95 115.7369140625 139.8111328125 110.1 139.95 95.913671875 140.2484375 82.5 139.45 82.4134765625 139.4412109375 82.3 139.45 79.5017578125 139.8056640625 78.6 141.6
L 57.5 120.5
Q 57.58984375 120.480859375 57.65 120.4
L 66.9 111.55 66.8 111.6
Q 71.489453125 107.8423828125 78.45 107.7
L 92.6 107.7
Q 99.237890625 108.373828125 104.6 112.15 104.884375 112.35390625 105.2 112.35
L 118.05 112.35
Q 123.6875 113.0046875 124.05 118.45 124.3048828125 123.84375 118.55 124.7
L 95.2 124.7
Q 94.7892578125 124.703515625 94.5 125 94.203515625 125.2892578125 94.2 125.7 94.203515625 126.1107421875 94.5 126.4 94.7892578125 126.696484375 95.2 126.7
L 118.7 126.7
Q 118.772265625 126.70546875 118.85 126.7 126.48203125 125.558203125 126.05 118.35
L 126.05 118.3
Q 125.883984375 115.6197265625 124.7 113.8 124.8994140625 113.7677734375 125.05 113.65 129.9056640625 109.94375 135.6 108.9 136.0380859375 108.8615234375 136.25 108.5 141.7470703125 100.5283203125 147 98
M 38.7 129.75
L 51.3 117.1 83.15 148.95 70.55 161.6 38.7 129.75
M 49.75 127.5
Q 49.4607421875 127.203515625 49.05 127.2 48.6392578125 127.203515625 48.35 127.5 48.053515625 127.7892578125 48.05 128.2 48.053515625 128.6107421875 48.35 128.9
L 56.6 137.15
Q 56.8892578125 137.446484375 57.3 137.45 57.7107421875 137.446484375 58 137.15 58.296484375 136.8607421875 58.3 136.45 58.296484375 136.0392578125 58 135.75
L 49.75 127.5
M 117.95 40.95
L 117.95 40.95
Q 113.5861328125 37.1955078125 106.9 37.35 100.978515625 37.509375 97.1 40.95 92.48515625 45.0599609375 92.2 52.7 92.1724609375 53.6005859375 92.2 54.55
L 92.2 54.7 92.2 65.35 88.95 65.35
Q 88.5392578125 65.353515625 88.25 65.65 87.953515625 65.9392578125 87.95 66.35 87.953515625 66.7607421875 88.25 67.05 88.5392578125 67.346484375 88.95 67.35
L 97.95 67.35
Q 98.3607421875 67.346484375 98.65 67.05 98.946484375 66.7607421875 98.95 66.35 98.946484375 65.9392578125 98.65 65.65 98.3607421875 65.353515625 97.95 65.35
L 94.2 65.35 94.2 54.7 94.2 54.5
Q 94.1728515625 53.585546875 94.2 52.7 94.4994140625 46.0658203125 98.45 42.45 101.821484375 39.4904296875 106.95 39.35 112.813671875 39.204296875 116.65 42.45
L 116.6 42.45
Q 120.4880859375 45.9939453125 120.55 52.7 120.56875 53.6671875 120.5 54.7 120.4751953125 54.98515625 120.45 55.25 120.448046875 55.3154296875 120.45 55.35
L 120.45 65.7 116.95 65.7
Q 116.5392578125 65.703515625 116.25 66 115.953515625 66.2892578125 115.95 66.7 115.953515625 67.1107421875 116.25 67.4 116.5392578125 67.696484375 116.95 67.7
L 125.95 67.7
Q 126.3607421875 67.696484375 126.65 67.4 126.8017578125 67.251953125 126.85 67.05 126.9482421875 66.900390625 126.95 66.7 126.946484375 66.2892578125 126.65 66 126.3607421875 65.703515625 125.95 65.7
L 122.45 65.7 122.45 55.4
Q 122.4818359375 55.058984375 122.5 54.7 122.5736328125 53.670703125 122.55 52.7 122.5294921875 44.9724609375 117.95 40.95
M 64.2 74.05
L 61.9 71.75 59.75 69.6
Q 59.4607421875 69.303515625 59.05 69.3 58.6392578125 69.303515625 58.35 69.6 58.053515625 69.8892578125 58.05 70.3 58.053515625 70.7107421875 58.35 71
L 60.5 73.15 62.8 75.45
Q 63.0892578125 75.746484375 63.5 75.75 63.9107421875 75.746484375 64.2 75.45 64.496484375 75.1607421875 64.5 74.75 64.496484375 74.3392578125 64.2 74.05
M 142.8 147.2
Q 142.503515625 147.4892578125 142.5 147.9
L 142.5 152
Q 142.503515625 152.4107421875 142.8 152.7 143.0892578125 152.996484375 143.5 153 143.9107421875 152.996484375 144.2 152.7 144.496484375 152.4107421875 144.5 152
L 144.5 147.9
Q 144.496484375 147.4892578125 144.2 147.2 143.9107421875 146.903515625 143.5 146.9 143.0892578125 146.903515625 142.8 147.2
M 146.4 144
Q 145.9892578125 144.003515625 145.7 144.3 145.403515625 144.5892578125 145.4 145 145.403515625 145.4107421875 145.7 145.7 145.9892578125 145.996484375 146.4 146
L 150.45 146.05
Q 150.8607421875 146.046484375 151.15 145.75 151.446484375 145.4607421875 151.45 145.05 151.446484375 144.6392578125 151.15 144.35 150.8607421875 144.053515625 150.45 144.05
L 146.4 144
M 144.5 141.7
L 144.5 138.1
Q 144.496484375 137.6892578125 144.2 137.4 143.9107421875 137.103515625 143.5 137.1 143.0892578125 137.103515625 142.8 137.4 142.503515625 137.6892578125 142.5 138.1
L 142.5 141.7
Q 142.503515625 142.1107421875 142.8 142.4 143.0892578125 142.696484375 143.5 142.7 143.9107421875 142.696484375 144.2 142.4 144.496484375 142.1107421875 144.5 141.7
M 136.6 144
Q 136.1892578125 144.003515625 135.9 144.3 135.603515625 144.5892578125 135.6 145 135.603515625 145.4107421875 135.9 145.7 136.1892578125 145.996484375 136.6 146
L 140.2 146
Q 140.6107421875 145.996484375 140.9 145.7 141.196484375 145.4107421875 141.2 145 141.196484375 144.5892578125 140.9 144.3 140.6107421875 144.003515625 140.2 144
L 136.6 144
M 53.45 71
Q 53.746484375 70.7107421875 53.75 70.3 53.746484375 69.8892578125 53.45 69.6 53.1607421875 69.303515625 52.75 69.3 52.3392578125 69.303515625 52.05 69.6
L 47.55 74.1
Q 47.253515625 74.3892578125 47.25 74.8 47.253515625 75.2107421875 47.55 75.5 47.8392578125 75.796484375 48.25 75.8 48.6607421875 75.796484375 48.95 75.5
L 53.45 71
M 47.3 59.55
Q 47.303515625 59.9607421875 47.6 60.25
L 51.55 64.2
Q 51.8392578125 64.496484375 52.25 64.5 52.6607421875 64.496484375 52.95 64.2 53.246484375 63.9107421875 53.25 63.5 53.246484375 63.0892578125 52.95 62.8
L 49 58.85
Q 48.7107421875 58.553515625 48.3 58.55 47.8892578125 58.553515625 47.6 58.85 47.303515625 59.1392578125 47.3 59.55
M 63.5 58.55
Q 63.0921875 58.5412109375 62.8 58.8
L 58.85 62.75
Q 58.5541015625 63.0771484375 58.55 63.5 58.540234375 63.9080078125 58.8 64.2 59.126171875 64.4958984375 59.55 64.5 59.9578125 64.5087890625 60.25 64.2
L 64.2 60.25
Q 64.4958984375 59.9728515625 64.5 59.55 64.509765625 59.1419921875 64.2 58.85 63.923828125 58.55390625 63.5 58.55
M 151.8 75.55
Q 151.7982421875 75.3447265625 151.65 75.2 151.5052734375 75.0517578125 151.3 75.05 151.0947265625 75.0517578125 150.95 75.2 150.8017578125 75.3447265625 150.8 75.55
L 150.8 79.8
Q 150.8017578125 80.0052734375 150.95 80.15 151.0947265625 80.2982421875 151.3 80.3 151.5052734375 80.2982421875 151.65 80.15 151.7982421875 80.0052734375 151.8 79.8
L 151.8 75.55
M 154.3 72.05
Q 154.0947265625 72.0517578125 153.95 72.2 153.8017578125 72.3447265625 153.8 72.55 153.8017578125 72.7552734375 153.95 72.9 154.0947265625 73.0482421875 154.3 73.05
L 158.55 73.05
Q 158.7552734375 73.0482421875 158.9 72.9 159.0482421875 72.7552734375 159.05 72.55 159.0482421875 72.3447265625 158.9 72.2 158.7552734375 72.0517578125 158.55 72.05
L 154.3 72.05
M 143.7 72.9
Q 143.8447265625 73.0482421875 144.05 73.05
L 147.8 73.05
Q 148.0052734375 73.0482421875 148.15 72.9 148.2982421875 72.7552734375 148.3 72.55 148.2982421875 72.3447265625 148.15 72.2 148.0052734375 72.0517578125 147.8 72.05
L 144.05 72.05
Q 143.8447265625 72.0517578125 143.7 72.2 143.5517578125 72.3447265625 143.55 72.55 143.5517578125 72.7552734375 143.7 72.9
M 151.8 65.3
Q 151.7982421875 65.0947265625 151.65 64.95 151.5052734375 64.8017578125 151.3 64.8 151.0947265625 64.8017578125 150.95 64.95 150.8017578125 65.0947265625 150.8 65.3
L 150.8 69.05
Q 150.8017578125 69.2552734375 150.95 69.4 151.0947265625 69.5482421875 151.3 69.55 151.5052734375 69.5482421875 151.65 69.4 151.7982421875 69.2552734375 151.8 69.05
L 151.8 65.3 Z"/>

<path fill="#A8D2F0" stroke="none" d="
M 51.3 117.1
L 38.7 129.75 70.55 161.6 83.15 148.95 51.3 117.1
M 49.05 127.2
Q 49.4607421875 127.203515625 49.75 127.5
L 58 135.75
Q 58.296484375 136.0392578125 58.3 136.45 58.296484375 136.8607421875 58 137.15 57.7107421875 137.446484375 57.3 137.45 56.8892578125 137.446484375 56.6 137.15
L 48.35 128.9
Q 48.053515625 128.6107421875 48.05 128.2 48.053515625 127.7892578125 48.35 127.5 48.6392578125 127.203515625 49.05 127.2 Z"/>

<path fill="#FFFFFF" stroke="none" d="
M 157.6 98.65
Q 152.4138671875 95.469140625 147 98 141.7470703125 100.5283203125 136.25 108.5 136.0380859375 108.8615234375 135.6 108.9 129.9056640625 109.94375 125.05 113.65 124.8994140625 113.7677734375 124.7 113.8 125.883984375 115.6197265625 126.05 118.3
L 126.05 118.35
Q 126.48203125 125.558203125 118.85 126.7 118.772265625 126.70546875 118.7 126.7
L 95.2 126.7
Q 94.7892578125 126.696484375 94.5 126.4 94.203515625 126.1107421875 94.2 125.7 94.203515625 125.2892578125 94.5 125 94.7892578125 124.703515625 95.2 124.7
L 118.55 124.7
Q 124.3048828125 123.84375 124.05 118.45 123.6875 113.0046875 118.05 112.35
L 105.2 112.35
Q 104.884375 112.35390625 104.6 112.15 99.237890625 108.373828125 92.6 107.7
L 78.45 107.7
Q 71.489453125 107.8423828125 66.8 111.6
L 66.9 111.55 57.65 120.4
Q 57.58984375 120.480859375 57.5 120.5
L 78.6 141.6
Q 79.5017578125 139.8056640625 82.3 139.45 82.4134765625 139.4412109375 82.5 139.45 95.913671875 140.2484375 110.1 139.95 115.7369140625 139.8111328125 121.1 138.95 124.954296875 136.523828125 128.7 133.75
L 132.95 130.4 132.9 130.4
Q 141.7033203125 123.5591796875 147.6 114.65
L 147.6 114.65 147.65 114.55 157.6 98.65
M 120.45 55.25
Q 120.4751953125 54.98515625 120.5 54.7
L 94.2 54.7 94.2 65.35 97.95 65.35
Q 98.3607421875 65.353515625 98.65 65.65 98.946484375 65.9392578125 98.95 66.35 98.946484375 66.7607421875 98.65 67.05 98.3607421875 67.346484375 97.95 67.35
L 88.95 67.35
Q 88.5392578125 67.346484375 88.25 67.05 87.953515625 66.7607421875 87.95 66.35 87.953515625 65.9392578125 88.25 65.65 88.5392578125 65.353515625 88.95 65.35
L 92.2 65.35 92.2 54.7 79.2 54.7 79.2 105.7 92.7 105.7
Q 92.748046875 105.6974609375 92.8 105.7 99.8078125 106.4103515625 105.5 110.35
L 118.2 110.35
Q 118.26171875 110.3466796875 118.3 110.35 121.6451171875 110.73515625 123.55 112.4 123.6431640625 112.209375 123.85 112.05 128.9119140625 108.1951171875 134.85 107.05 135.36484375 106.3072265625 135.85 105.6 135.702734375 105.365234375 135.7 105.05
L 135.7 54.7 122.5 54.7
Q 122.4818359375 55.058984375 122.45 55.4
L 122.45 65.7 125.95 65.7
Q 126.3607421875 65.703515625 126.65 66 126.946484375 66.2892578125 126.95 66.7 126.9482421875 66.900390625 126.85 67.05 126.8017578125 67.251953125 126.65 67.4 126.3607421875 67.696484375 125.95 67.7
L 116.95 67.7
Q 116.5392578125 67.696484375 116.25 67.4 115.953515625 67.1107421875 115.95 66.7 115.953515625 66.2892578125 116.25 66 116.5392578125 65.703515625 116.95 65.7
L 120.45 65.7 120.45 55.35
Q 120.448046875 55.3154296875 120.45 55.25 Z"/>

<path fill="#D14140" stroke="none" d="
M 137.4 53
Q 137.1107421875 52.703515625 136.7 52.7
L 122.55 52.7
Q 122.5736328125 53.670703125 122.5 54.7
L 135.7 54.7 135.7 105.05
Q 135.702734375 105.365234375 135.85 105.6 136.7896484375 104.3580078125 137.7 103.25
L 137.7 77.65 137.7 53.7
Q 137.696484375 53.2892578125 137.4 53
M 92.2 54.55
Q 92.1724609375 53.6005859375 92.2 52.7
L 78.2 52.7
Q 77.7892578125 52.703515625 77.5 53 77.203515625 53.2892578125 77.2 53.7
L 77.2 61.45 77.2 105.75
Q 77.805078125 105.7126953125 78.4 105.7
L 79.2 105.7 79.2 54.7 92.2 54.7 92.2 54.55
M 120.5 54.7
Q 120.56875 53.6671875 120.55 52.7
L 94.2 52.7
Q 94.1728515625 53.585546875 94.2 54.5
L 94.2 54.7 120.5 54.7 Z"/>
</g>
</defs>

<g transform="matrix( 1, 0, 0, 1, 0,0) ">
<use xlink:href="#Layer0_0_FILL"/>
</g>
</svg>
