
<svg xmlns="http://www.w3.org/2000/svg" version="1.1" xmlns:xlink="http://www.w3.org/1999/xlink" preserveAspectRatio="none" x="0px" y="0px" width="200px" height="200px" viewBox="0 0 200 200">
<defs>
<g id="Layer1_0_FILL">
<path fill="#FFFFFF" stroke="none" d="
M 78.8 101.15
L 78.8 103.35
Q 76.5 103.65 75.05 105.2 73.6 106.7 73.6 108.9 73.6 110.75 74.75 112.15 75.9 113.55 79.85 114.35 81.7 114.75 82.35 115.15 82.95 115.6 82.95 116.4 82.95 117.15 82.25 117.7 81.55 118.25 80.1 118.25 77.15 118.25 76.5 115.75
L 72.65 116.65
Q 73.75 120.95 78.8 121.5
L 78.8 124.15 81.05 124.15 81.05 121.5
Q 84.15 121.2 85.65 119.5 87.15 117.8 87.15 115.65 87.15 114.1 86.3 112.85 85.45 111.65 84.2 111.05 82.95 110.5 80.2 109.95 78.6 109.65 78.15 109.2 77.65 108.75 77.65 108.1 77.65 106.55 80.15 106.55 82.45 106.55 83.15 108.6
L 86.7 107.45
Q 85.35 103.75 81.05 103.35
L 81.05 101.15 78.8 101.15 Z"/>

<path fill="#0053A3" stroke="none" d="
M 125.8 113.2
Q 125.0890625 112.4962890625 124.05 112.5
L 101.8 112.5
Q 100.7607421875 112.4962890625 100 113.2 99.2962890625 113.9607421875 99.3 115 99.2962890625 116.0390625 100 116.75 100.7607421875 117.503515625 101.8 117.5
L 124.05 117.5
Q 125.0890625 117.503515625 125.8 116.75 126.553515625 116.0390625 126.55 115 126.553515625 113.9607421875 125.8 113.2
M 58.3 129
Q 58.2962890625 130.0390625 59 130.75 59.7607421875 131.503515625 60.8 131.5
L 106.3 131.5
Q 107.3390625 131.503515625 108.05 130.75 108.803515625 130.0390625 108.8 129 108.803515625 127.9607421875 108.05 127.2 107.3390625 126.4962890625 106.3 126.5
L 60.8 126.5
Q 59.7607421875 126.4962890625 59 127.2 58.2962890625 127.9607421875 58.3 129
M 67.55 115
Q 67.553515625 113.9607421875 66.8 113.2 66.0890625 112.4962890625 65.05 112.5
L 43 112.5
Q 41.9607421875 112.4962890625 41.2 113.2 40.4962890625 113.9607421875 40.5 115 40.4962890625 116.0390625 41.2 116.75 41.9607421875 117.503515625 43 117.5
L 65.05 117.5
Q 66.0890625 117.503515625 66.8 116.75 67.553515625 116.0390625 67.55 115 Z"/>

<path fill="#D14140" stroke="none" d="
M 95.9 146.9
Q 94.25 145.35 92.1 145.35 89.4 145.35 87.7 147.55 86 149.7 86 152.55 86 154.9 87.4 156.65 88.8 158.45 91.35 158.45 94.25 158.45 95.9 156.25 97.5 154.1 97.5 151.7 97.5 148.45 95.9 146.9
M 92.1 148.5
Q 93.45 148.5 93.45 150.45 93.45 155.4 91.45 155.4 90.05 155.4 90.05 153.45 90.05 152.35 90.45 150.45 90.85 148.5 92.1 148.5
M 74.15 158.3
L 77.35 158.3 95.1 134.85 91.9 134.85 74.15 158.3
M 73.55 136.85
Q 71.75 138.95 71.75 142 71.75 144.5 73.2 146.2 74.7 147.85 77.05 147.85 79.7 147.85 81.45 145.65 83.25 143.45 83.25 140.8 83.25 137.95 81.65 136.35 80.1 134.75 77.9 134.75 75.3 134.75 73.55 136.85
M 76.25 139.35
Q 76.75 137.9 77.8 137.9 79.15 137.9 79.15 139.85 79.15 140.6 78.9 142.25 78.65 143.85 78.25 144.4 77.8 144.9 77.1 144.9 75.7 144.9 75.7 142.85 75.7 140.85 76.25 139.35 Z"/>
</g>

<g id="Layer0_0_FILL">
<path fill="#0053A3" stroke="none" d="
M 41.2 113.2
Q 40.4962890625 113.9607421875 40.5 115
L 40.5 163
Q 40.4962890625 164.0390625 41.2 164.75 41.9607421875 165.503515625 43 165.5 43.3275390625 165.501171875 43.6 165.4 43.9224609375 165.501171875 44.25 165.5
L 123.8 165.5
Q 123.8630859375 165.5001953125 123.9 165.5 123.9869140625 165.5001953125 124.05 165.5 125.0890625 165.503515625 125.8 164.75 126.553515625 164.0390625 126.55 163
L 126.55 115
Q 126.553515625 113.9607421875 125.8 113.2 125.0890625 112.4962890625 124.05 112.5 123.0107421875 112.4962890625 122.25 113.2 121.5462890625 113.9607421875 121.55 115
L 121.55 160.5 45.5 160.5 45.5 115
Q 45.503515625 113.9607421875 44.75 113.2 44.0390625 112.4962890625 43 112.5 41.9607421875 112.4962890625 41.2 113.2
M 139.1 33.75
Q 138.8271484375 33.1291015625 138.25 32.7 137.7240234375 32.332421875 137.05 32.25 136.3732421875 32.198828125 135.75 32.45
L 118.5 40.45
Q 117.5576171875 40.918359375 117.2 41.9 116.8482421875 42.8771484375 117.3 43.8
L 119.6 48.75
Q 111.312890625 53.41640625 102.35 51.3 102.3244140625 51.3130859375 102.25 51.3 97.5986328125 50.372265625 93.9 51.35 87.7755859375 49.615625 76.05 54.7 75.948828125 54.748046875 75.85 54.8
L 65.05 60.65
Q 58.656640625 64.152734375 57.55 67.8 55.7435546875 72.100390625 60.4 76.25
L 60.45 76.25
Q 63.8166015625 79.92734375 78.6 71.95
L 70.25 91.25
Q 70.0962890625 91.619140625 70.05 92 70.0529296875 92.064453125 70.05 92.1 69.8482421875 95.9578125 70.95 98.05 71.783203125 99.6705078125 73.4 100.25 75.6666015625 101.6451171875 79.75 100
L 79.75 99.1 81.75 99.1
Q 81.959375 98.991015625 82.15 98.85 82.1419921875 98.9875 82.1 99.1
L 82.25 99.1 82.25 101.5
Q 87 101.95 88.45 106.05
L 85.45 107.05
Q 89.643359375 109.9689453125 99.2 105.7 101.38359375 104.7544921875 103.85 103.4 105.532421875 102.4935546875 107.35 101.4
L 107.2 101.45
Q 118.4259765625 95.5556640625 122.05 86.8 126.2728515625 79.7373046875 132.85 76.7
L 135.3 81.8
Q 135.5892578125 82.441796875 136.15 82.8 136.719140625 83.2078125 137.4 83.25 138.068359375 83.2900390625 138.65 82.95
L 154.4 74.95
Q 155.3099609375 74.526171875 155.65 73.6 155.99140625 72.66640625 155.6 71.75
L 139.1 33.75
M 125.2 48.9
Q 125.1275390625 48.6705078125 124.95 48.4 124.966796875 48.401171875 124.95 48.35
L 122.85 43.95 135.5 38.1 150.05 71.6 138.7 77.35 136.4 72.55 136.35 72.4
Q 136.3294921875 72.3791015625 136.3 72.3
L 125.2 48.9
M 110.05 73.1
Q 109.898046875 72.828515625 109.65 72.55 104.4763671875 66.7720703125 99.7 66.95 94.7515625 66.77109375 90.5 72.8 90.4052734375 72.9685546875 90.3 73.1
L 79.4 94.65
Q 76.796484375 96.0404296875 75.55 95.75 75.24453125 95.4078125 75.1 94.55 74.9974609375 93.866015625 75 92.8
L 86.15 67.1 86.2 67.05 86.25 67
Q 86.296484375 66.8908203125 86.3 66.75
L 87.85 63.2
Q 90.255078125 57.9609375 94.5 56.4 94.5779296875 56.3984375 94.65 56.35
L 94.7 56.35 94.75 56.35
Q 94.8173828125 56.3193359375 94.85 56.3 94.9125 56.2875 94.95 56.25 97.7484375 55.496484375 101.3 56.2 111.91796875 58.7080078125 121.75 53.3
L 130.7 72.15
Q 122.702734375 75.8474609375 117.65 84.5 117.567578125 84.6357421875 117.5 84.75 114.3291015625 92.06796875 104.85 97.05 104.8158203125 97.074609375 104.75 97.1 103.3345703125 97.9521484375 102 98.65 99.599609375 100.0439453125 97.55 101 89.8927734375 104.6072265625 87.85 102.3 87.8091796875 102.2619140625 87.75 102.2 86.4109375 100.4029296875 88.05 98.65 89.6619140625 97.0943359375 92.8 95.55 94.9921875 94.4513671875 97.95 93.35 98.6359375 93.1203125 99.35 92.85 99.44453125 92.8412109375 99.55 92.8 107.6158203125 89.284375 110.15 84.55 113.18515625 79.4546875 110.05 73.1
M 83.25 61.2
Q 83.2634765625 61.2533203125 83.25 61.25
L 81.95 64.25
Q 66.08125 73.825390625 63.75 72.5
L 63.75 72.5
Q 61.9958984375 70.9400390625 62.25 69.45 63.239453125 67.3490234375 67.45 65.05
L 78.1 59.25
Q 82.623046875 57.3271484375 86.05 56.55 84.496875 58.53203125 83.25 61.2
M 94.65 75.55
L 94.65 75.55
Q 97.1076171875 72.1712890625 99.7 71.95 102.47421875 72.1666015625 105.65 75.6 107.3640625 79.192578125 105.8 82.1 103.7349609375 85.5150390625 97.55 88.2 95.187890625 89.015625 93.2 89.85 89.6041015625 91.3568359375 87.2 92.9 85.9689453125 93.7498046875 85.05 94.6
L 88.35 88 94.65 75.55 Z"/>

<path fill="#D14140" stroke="none" d="
M 81.75 99.1
L 82.1 99.1
Q 82.1419921875 98.9875 82.15 98.85 81.959375 98.991015625 81.75 99.1
M 68.25 93.6
L 68.2 93.65
Q 62.05078125 99.8755859375 62.05 108.65 62.0494140625 112.0162109375 62.95 115 64.4134765625 119.808984375 68.2 123.6 74.4619140625 129.8546875 83.25 129.85 92.02421875 129.844921875 98.2 123.6
L 98.2 123.6
Q 102.05859375 119.7935546875 103.5 115 104.448046875 112.0162109375 104.45 108.65 104.4513671875 105.90703125 103.85 103.4 101.38359375 104.7544921875 99.2 105.7 89.643359375 109.9689453125 85.45 107.05
L 84.6 107.35
Q 83.8 105.05 81.25 105.05 78.5 105.05 78.5 106.8 78.5 107.5 79.05 108 79.55 108.5 81.3 108.85 84.3 109.45 85.7 110.05 87.1 110.7 88.05 112.05 89 113.45 89 115.15 89 117.5 87.35 119.4 85.65 121.25 82.25 121.6
L 82.25 124.5 79.75 124.5 79.75 121.6
Q 74.2 121 73 116.25
L 77.25 115.25
Q 77.95 118 81.2 118 82.8 118 83.6 117.4 84.35 116.8 84.35 115.95 84.35 115.05 83.65 114.6 82.95 114.1 80.95 113.7 76.55 112.8 75.25 111.25 74 109.75 74 107.7 74 105.25 75.6 103.55 77.2 101.85 79.75 101.55
L 79.75 100
Q 75.6666015625 101.6451171875 73.4 100.25 71.783203125 99.6705078125 70.95 98.05 69.8482421875 95.9578125 70.05 92.1 70.0529296875 92.064453125 70.05 92 69.1291015625 92.753125 68.25 93.6
M 88.35 88
L 85.05 94.6
Q 85.9689453125 93.7498046875 87.2 92.9 89.6041015625 91.3568359375 93.2 89.85 90.91875 88.6248046875 88.35 88 Z"/>

<path fill="#FFFFFF" stroke="none" d="
M 79.05 108
Q 78.5 107.5 78.5 106.8 78.5 105.05 81.25 105.05 83.8 105.05 84.6 107.35
L 85.45 107.05 88.45 106.05
Q 87 101.95 82.25 101.5
L 82.25 99.1 82.1 99.1 81.75 99.1 79.75 99.1 79.75 100 79.75 101.55
Q 77.2 101.85 75.6 103.55 74 105.25 74 107.7 74 109.75 75.25 111.25 76.55 112.8 80.95 113.7 82.95 114.1 83.65 114.6 84.35 115.05 84.35 115.95 84.35 116.8 83.6 117.4 82.8 118 81.2 118 77.95 118 77.25 115.25
L 73 116.25
Q 74.2 121 79.75 121.6
L 79.75 124.5 82.25 124.5 82.25 121.6
Q 85.65 121.25 87.35 119.4 89 117.5 89 115.15 89 113.45 88.05 112.05 87.1 110.7 85.7 110.05 84.3 109.45 81.3 108.85 79.55 108.5 79.05 108 Z"/>
</g>
</defs>

<g transform="matrix( 1, 0, 0, 1, 0,0) ">
<use xlink:href="#Layer1_0_FILL"/>
</g>

<g transform="matrix( 1, 0, 0, 1, 0,0) ">
<use xlink:href="#Layer0_0_FILL"/>
</g>
</svg>
