
<svg xmlns="http://www.w3.org/2000/svg" version="1.1" xmlns:xlink="http://www.w3.org/1999/xlink" preserveAspectRatio="none" x="0px" y="0px" width="200px" height="200px" viewBox="0 0 200 200">
<defs>
<path id="Layer0_0_1_STROKES" stroke="#0053A3" stroke-width="5" stroke-linejoin="round" stroke-linecap="round" fill="none" d="
M 83.05 142.7
L 101.3 142.7"/>

<path id="Layer0_0_2_STROKES" stroke="#0053A3" stroke-width="10" stroke-linejoin="round" stroke-linecap="round" fill="none" d="
M 45.8 83.7
L 57.8 83.7 57.8 51.2 57.8 42
Q 57.8 32 67.8 32
L 117.3 32
Q 127.3 32 127.3 42
L 127.3 51.2 127.3 64.7
M 127.3 123.45
L 127.3 133.7 127.3 142.2
Q 127.3 152.2 117.3 152.2
L 67.8 152.2
Q 57.8 152.2 57.8 142.2
L 57.8 98.2 57.8 83.7 84.55 83.7
M 83.8 98.2
L 57.8 98.2
M 60.55 133.7
L 127.3 133.7
M 57.8 51.2
L 127.3 51.2"/>

<path id="Layer0_0_3_STROKES" stroke="#D14140" stroke-width="5" stroke-linejoin="round" stroke-linecap="round" fill="none" d="
M 137.3 100.45
L 102.8 100.45 102.8 93.2 97.35 74.45 95.3 67.45 87.3 67.45
M 102.8 93.2
L 136.3 89.7 141.25 74.45 97.35 74.45
M 138.3 111.2
Q 138.3 113.25 136.8 114.7 135.35 116.2 133.3 116.2 131.25 116.2 129.75 114.7 128.3 113.25 128.3 111.2 128.3 109.15 129.75 107.65 131.25 106.2 133.3 106.2 135.35 106.2 136.8 107.65 138.3 109.15 138.3 111.2 Z
M 110.05 112.45
Q 110.05 114.5 108.55 115.95 107.1 117.45 105.05 117.45 103 117.45 101.5 115.95 100.05 114.5 100.05 112.45 100.05 110.4 101.5 108.9 103 107.45 105.05 107.45 107.1 107.45 108.55 108.9 110.05 110.4 110.05 112.45 Z"/>
</defs>

<g transform="matrix( 1, 0, 0, 1, 0,0) ">
<use xlink:href="#Layer0_0_1_STROKES"/>

<use xlink:href="#Layer0_0_2_STROKES"/>

<use xlink:href="#Layer0_0_3_STROKES"/>
</g>
</svg>
