
<svg xmlns="http://www.w3.org/2000/svg" version="1.1" xmlns:xlink="http://www.w3.org/1999/xlink" preserveAspectRatio="none" x="0px" y="0px" width="200px" height="200px" viewBox="0 0 200 200">
<defs>
<g id="Layer0_0_FILL">
<path fill="#D14140" stroke="none" d="
M 62.8 126.95
Q 64.214453125 127.26875 65.4 126.45 76.03203125 119.872265625 105.1 125.7
L 105.05 125.7
Q 119.1 128.85 129.85 128.5 141.45 128.1 149.7 123.65 151.15 122.9 151.7 121.85 152.35 120.6 151.9 119.2 151.4 117.8 150.1 117.2 148.5 116.35 147.45 117 139.9 121.9 129.05 121.95 120.6 122.05 106.55 118.85
L 106.5 118.85
Q 73.5640625 112.226953125 61.55 120.6 60.3658203125 121.4341796875 60.05 122.85 59.7916015625 124.266015625 60.6 125.45 61.3943359375 126.6857421875 62.8 126.95
M 147.35 56.55
Q 146.106640625 56.3388671875 145 57 127.5583984375 67.298046875 102.55 58.7 73.4841796875 48.679296875 60.7 58.4 60.012890625 58.8990234375 59.6 59.65 59.244921875 60.4041015625 59.25 61.25
L 59.25 111.3
Q 59.251171875 112.5486328125 60.05 113.5 60.8513671875 114.4880859375 62.05 114.7 63.2927734375 114.979296875 64.4 114.4 77.486328125 107.723046875 104.65 114.5 135.58359375 122.228515625 148.95 111 149.5966796875 110.53671875 149.95 109.8 150.29921875 109.0990234375 150.3 108.3
L 150.3 60
Q 150.3033203125 58.7263671875 149.45 57.75 148.6427734375 56.76484375 147.35 56.55
M 100.25 65.3
Q 125.0443359375 73.8298828125 143.3 65.75
L 143.3 106.5
Q 131.5494140625 114.0046875 106.35 107.7 80.7314453125 101.3044921875 66.25 106
L 66.25 63.2
Q 77.19765625 57.3650390625 100.25 65.3
M 101.7 67.5
L 101.7 71.15
Q 97.9 71.65 95.5 74.2 93.1 76.75 93.1 80.35 93.1 83.4 94.95 85.7 96.9 88 103.45 89.35 106.45 89.95 107.5 90.65 108.55 91.4 108.55 92.7 108.55 93.95 107.4 94.85 106.2 95.75 103.85 95.75 99 95.75 97.9 91.65
L 91.55 93.1
Q 93.35 100.25 101.7 101.15
L 101.7 105.5 105.4 105.5 105.4 101.15
Q 110.5 100.65 113 97.85 115.5 95 115.5 91.5 115.5 88.95 114.1 86.9 112.65 84.85 110.55 83.9 108.5 83 104 82.1 101.35 81.55 100.6 80.85 99.8 80.1 99.8 79.05 99.8 76.4 103.9 76.4 107.7 76.4 108.9 79.85
L 114.7 77.95
Q 112.5 71.8 105.4 71.1
L 105.4 67.5 101.7 67.5 Z"/>

<path fill="#0053A3" stroke="none" d="
M 119.65 48.8
Q 116.679296875 31.6953125 96.75 31.7
L 65.1 31.7
Q 41.65 31.693359375 41.65 55.2
L 41.65 131.95
Q 41.65 155.456640625 65.1 155.45
L 96.75 155.45
Q 119.3814453125 155.448046875 120.2 133.5 120.28125 131.4462890625 118.85 129.9 117.4654296875 128.3923828125 115.4 128.3 113.344921875 128.2169921875 111.8 129.6 110.294140625 131.033203125 110.2 133.1 109.6189453125 145.451953125 96.75 145.45
L 65.1 145.45
Q 51.65 145.44296875 51.65 131.95
L 51.65 55.2
Q 51.65 41.70703125 65.1 41.7
L 96.75 41.7
Q 107.8259765625 41.7044921875 109.85 50.7 110.23984375 52.719140625 111.95 53.85 113.6701171875 55.041015625 115.7 54.65 117.71796875 54.262109375 118.85 52.55 120.0390625 50.8287109375 119.65 48.8
M 78.55 132.8
Q 76.8 134.5 76.8 136.95 76.8 139.35 78.55 141.1 80.25 142.85 82.7 142.85 85.15 142.85 86.85 141.1 88.6 139.35 88.6 136.95 88.6 134.5 86.85 132.8 85.15 131.05 82.7 131.05 80.25 131.05 78.55 132.8 Z"/>
</g>
</defs>

<g transform="matrix( 1, 0, 0, 1, 0,0) ">
<use xlink:href="#Layer0_0_FILL"/>
</g>
</svg>
