
<svg xmlns="http://www.w3.org/2000/svg" version="1.1" xmlns:xlink="http://www.w3.org/1999/xlink" preserveAspectRatio="none" x="0px" y="0px" width="200px" height="200px" viewBox="0 0 200 200">
<defs>
<g id="Layer0_0_FILL">
<path fill="#0053A3" stroke="none" d="
M 64.3 111.8
Q 49.8 119.4 46.55 137.35 44.05 149.6 64.3 154.4 77.6 156.9 92.55 154.4 112.35 150.7 110.05 136.85 107.05 119.25 92.9 111.9 86.85 117 78.7 117 70.45 117 64.3 111.8
M 151.35 67.55
Q 145.3375 72.65 137.2 72.65 128.9513671875 72.65 122.8 67.4 108.304296875 75.0603515625 105.05 93 102.564453125 105.246875 122.8 110.05 136.09765625 112.5322265625 151.05 110.05 170.8671875 106.3474609375 168.55 92.5 165.5591796875 74.8947265625 151.35 67.55
M 96.35 95.1
Q 96.35 87.6 91 82.25 85.7 76.95 78.2 76.95 70.7 76.95 65.35 82.25 60.05 87.6 60.05 95.1 60.05 102.6 65.35 107.9 70.7 113.25 78.2 113.25 85.7 113.25 91 107.9 96.35 102.6 96.35 95.1
M 137.2 31.95
Q 129.7 31.95 124.35 37.25 119.05 42.6 119.05 50.1 119.05 57.6 124.35 62.9 129.7 68.25 137.2 68.25 144.7 68.25 150 62.9 155.35 57.6 155.35 50.1 155.35 42.6 150 37.25 144.7 31.95 137.2 31.95 Z"/>
</g>

<path id="Layer0_0_1_STROKES" stroke="#D14140" stroke-width="10" stroke-linejoin="round" stroke-linecap="round" fill="none" d="
M 91.05 51.25
L 53.25 51.25 67.5 65.5
M 53.25 51.25
L 67.05 37.45
M 156.05 137.05
L 124.3 137.05
M 148.05 124.05
L 160.55 136.55 147.3 149.8"/>
</defs>

<g transform="matrix( 1, 0, 0, 1, 0,0) ">
<use xlink:href="#Layer0_0_FILL"/>

<use xlink:href="#Layer0_0_1_STROKES"/>
</g>
</svg>
