
<svg xmlns="http://www.w3.org/2000/svg" version="1.1" xmlns:xlink="http://www.w3.org/1999/xlink" preserveAspectRatio="none" x="0px" y="0px" width="200px" height="200px" viewBox="0 0 200 200">
<defs>
<g id="Layer0_0_FILL">
<path fill="#0053A3" stroke="none" d="
M 152.25 48.2
Q 151.418359375 47.1146484375 150.15 46.6
L 101.9 27.4
Q 100.042578125 26.651171875 98.15 27.4
L 49.1 47.1
Q 47.81171875 47.6443359375 46.95 48.8 46.134375 49.9546875 46 51.35 38.574609375 147.2205078125 99.7 159.9 100.9365234375 160.2080078125 102.15 159.85 164.56875 142.97734375 153.25 50.65 153.0962890625 49.2876953125 152.25 48.2
M 100.05 37.45
L 143.65 54.8
Q 152.359765625 133.7029296875 100.65 149.85 50.353125 137.0462890625 55.75 55.25
L 100.05 37.45 Z"/>

<path fill="#D14140" stroke="none" d="
M 100.65 59.35
L 99.4 59.35
Q 93.2 59.35 88.8 63.75 84.4 68.15 84.4 74.35
L 84.4 83.75 81.4 83.75
Q 76.4 83.75 76.4 88.75
L 76.4 115.15
Q 76.4 120.15 81.4 120.15
L 117.5 120.15
Q 122.5 120.15 122.5 115.15
L 122.5 88.75
Q 122.5 83.75 117.5 83.75
L 115.65 83.75 115.65 74.35
Q 115.65 68.15 111.25 63.75 106.85 59.35 100.65 59.35
M 94.4 97.2
Q 94.4 94.95 96 93.35 97.6 91.75 99.85 91.75 102.1 91.75 103.7 93.35 105.3 94.95 105.3 97.2 105.3 99.45 103.7 101.05 103.2060546875 101.5439453125 102.65 101.85
L 102.65 110.65
Q 102.65 111.45 102.05 112.05 101.45 112.65 100.65 112.65
L 99 112.65
Q 98.2 112.65 97.6 112.05 97 111.45 97 110.65
L 97 101.85
Q 96.471875 101.521875 96 101.05 94.4 99.45 94.4 97.2
M 102.75 67.4
Q 107.75 67.4 107.75 72.4
L 107.75 83.75 91.75 83.75 91.75 72.4
Q 91.75 67.4 96.75 67.4
L 102.75 67.4 Z"/>
</g>
</defs>

<g transform="matrix( 1, 0, 0, 1, 0,0) ">
<use xlink:href="#Layer0_0_FILL"/>
</g>
</svg>
