
<svg xmlns="http://www.w3.org/2000/svg" version="1.1" xmlns:xlink="http://www.w3.org/1999/xlink" preserveAspectRatio="none" x="0px" y="0px" width="200px" height="200px" viewBox="0 0 200 200">
<defs>
<g id="Layer2_0_FILL">
<path fill="#0053A3" stroke="none" d="
M 71.05 56.7
L 47.25 56.7
Q 33.75 56.7 33.75 70.2
L 33.75 126.95
Q 33.75 140.45 47.25 140.45
L 71.05 140.45
Q 84.55 140.45 84.55 126.95
L 84.55 70.2
Q 84.55 56.7 71.05 56.7
M 40.75 72.2
L 77.55 72.2 77.55 122.7 40.75 122.7 40.75 72.2
M 47.25 63.7
L 71.05 63.7
Q 76.4583984375 63.7 77.35 68.2
L 40.9 68.2
Q 41.8416015625 63.7 47.25 63.7
M 71.05 133.45
L 47.25 133.45
Q 40.75 133.45 40.75 126.95
L 40.75 126.7 77.55 126.7 77.55 126.95
Q 77.55 133.45 71.05 133.45
M 165.55 126.95
L 165.55 70.2
Q 165.55 56.7 152.05 56.7
L 128.25 56.7
Q 114.75 56.7 114.75 70.2
L 114.75 126.95
Q 114.75 140.45 128.25 140.45
L 152.05 140.45
Q 165.55 140.45 165.55 126.95
M 121.75 72.2
L 158.55 72.2 158.55 122.7 121.75 122.7 121.75 72.2
M 128.25 63.7
L 152.05 63.7
Q 157.4583984375 63.7 158.35 68.2
L 121.9 68.2
Q 122.8416015625 63.7 128.25 63.7
M 152.05 133.45
L 128.25 133.45
Q 121.75 133.45 121.75 126.95
L 121.75 126.7 158.55 126.7 158.55 126.95
Q 158.55 133.45 152.05 133.45 Z"/>
</g>

<g id="Layer1_0_FILL">
<path fill="#D14140" stroke="none" d="
M 129 91.7
Q 128.2890625 90.9962890625 127.25 91
L 58.05 91 63.55 85.5
Q 64.3046875 84.7568359375 64.3 83.7 64.290625 82.6986328125 63.55 81.95 62.8091796875 81.2447265625 61.75 81.25 60.74921875 81.2615234375 60 82
L 50.5 91.5
Q 50.385546875 91.6154296875 50.25 91.7 49.9048828125 92.0986328125 49.7 92.55 49.6375 93.025 49.55 93.5
L 49.55 93.5
Q 49.6375 93.975 49.7 94.4
L 49.7 94.45
Q 49.8763671875 94.822265625 50.15 95.1 50.18125 95.178125 50.2 95.2 50.2458984375 95.245703125 50.25 95.25
L 60 105
Q 60.7607421875 105.753515625 61.8 105.75 62.8390625 105.753515625 63.55 105 64.303515625 104.2890625 64.3 103.25 64.303515625 102.2107421875 63.55 101.45
L 58.1 96 127.25 96
Q 128.2890625 96.003515625 129 95.25 129.753515625 94.5390625 129.75 93.5 129.753515625 92.4607421875 129 91.7
M 134.75 97
Q 133.7107421875 96.9962890625 132.95 97.7 132.2462890625 98.4607421875 132.25 99.5 132.2462890625 100.5390625 132.95 101.25
L 138.2 106.5 75 106.5
Q 73.9607421875 106.4962890625 73.2 107.2 72.4962890625 107.9607421875 72.5 109 72.4962890625 110.0390625 73.2 110.75 73.9607421875 111.503515625 75 111.5
L 138.25 111.5 132.95 116.75
Q 132.2115234375 117.49921875 132.2 118.5 132.1947265625 119.5591796875 132.9 120.3 133.6486328125 121.0408203125 134.65 121.05 135.7068359375 121.0546875 136.45 120.3
L 146 110.75
Q 146.744140625 110.035546875 146.75 109 146.7568359375 107.965625 146 107.2
L 136.5 97.7
Q 135.7890625 96.9962890625 134.75 97
M 87.05 121.1
Q 88.15 122.2 89.7 122.2 91.25 122.2 92.3 121.1 93.4 120.05 93.4 118.5 93.4 116.95 92.3 115.85 91.25 114.8 89.7 114.8 88.15 114.8 87.05 115.85 86 116.95 86 118.5 86 120.05 87.05 121.1
M 110.05 114.8
Q 108.5 114.8 107.4 115.85 106.35 116.95 106.35 118.5 106.35 120.05 107.4 121.1 108.5 122.2 110.05 122.2 111.6 122.2 112.65 121.1 113.75 120.05 113.75 118.5 113.75 116.95 112.65 115.85 111.6 114.8 110.05 114.8
M 103.55 118.5
Q 103.55 116.95 102.45 115.85 101.4 114.8 99.85 114.8 98.3 114.8 97.2 115.85 96.15 116.95 96.15 118.5 96.15 120.05 97.2 121.1 98.3 122.2 99.85 122.2 101.4 122.2 102.45 121.1 103.55 120.05 103.55 118.5
M 112.65 86.35
Q 113.75 85.3 113.75 83.75 113.75 82.2 112.65 81.1 111.6 80.05 110.05 80.05 108.5 80.05 107.4 81.1 106.35 82.2 106.35 83.75 106.35 85.3 107.4 86.35 108.5 87.45 110.05 87.45 111.6 87.45 112.65 86.35
M 99.85 80.05
Q 98.3 80.05 97.2 81.1 96.15 82.2 96.15 83.75 96.15 85.3 97.2 86.35 98.3 87.45 99.85 87.45 101.4 87.45 102.45 86.35 103.55 85.3 103.55 83.75 103.55 82.2 102.45 81.1 101.4 80.05 99.85 80.05
M 93.4 83.75
Q 93.4 82.2 92.3 81.1 91.25 80.05 89.7 80.05 88.15 80.05 87.05 81.1 86 82.2 86 83.75 86 85.3 87.05 86.35 88.15 87.45 89.7 87.45 91.25 87.45 92.3 86.35 93.4 85.3 93.4 83.75 Z"/>
</g>
</defs>

<g transform="matrix( 1, 0, 0, 1, 0,0) ">
<use xlink:href="#Layer2_0_FILL"/>
</g>

<g transform="matrix( 1, 0, 0, 1, 0,0) ">
<use xlink:href="#Layer1_0_FILL"/>
</g>
</svg>
