
<svg xmlns="http://www.w3.org/2000/svg" version="1.1" xmlns:xlink="http://www.w3.org/1999/xlink" preserveAspectRatio="none" x="0px" y="0px" width="200px" height="200px" viewBox="0 0 200 200">
<defs>
<g id="Layer0_0_FILL">
<path fill="#0053A3" stroke="none" d="
M 69.55 125.2
L 49.05 125.2
Q 35.05 125.2 35.05 139.2
L 35.05 152
Q 35.0517578125 153.655078125 36.2 154.8 37.394921875 155.9982421875 39.05 156
L 79.55 156
Q 81.205078125 155.9982421875 82.35 154.8 83.5482421875 153.655078125 83.55 152
L 83.55 139.2
Q 83.55 125.2 69.55 125.2
M 43.05 148
L 43.05 139.2
Q 43.05 133.2 49.05 133.2
L 69.55 133.2
Q 75.55 133.2 75.55 139.2
L 75.55 148 72.05 148 72.05 138.7
Q 72.053515625 137.6607421875 71.3 136.9 70.5890625 136.1962890625 69.55 136.2 68.5107421875 136.1962890625 67.75 136.9 67.0462890625 137.6607421875 67.05 138.7
L 67.05 148 50.8 148 50.8 139.45
Q 50.803515625 138.4107421875 50.05 137.65 49.3390625 136.9462890625 48.3 136.95 47.2607421875 136.9462890625 46.5 137.65 45.7962890625 138.4107421875 45.8 139.45
L 45.8 148 43.05 148
M 47.6 96.95
L 47.55 97
Q 42.7958984375 101.8166015625 42.8 108.55 42.802734375 115.30625 47.55 120.05 52.401953125 124.90546875 59.15 124.9 65.8857421875 124.8986328125 70.65 120.1 70.6751953125 120.0751953125 70.7 120.05 75.4986328125 115.2857421875 75.5 108.55 75.50546875 101.801953125 70.65 96.95 65.90625 92.202734375 59.15 92.2 52.4166015625 92.1958984375 47.6 96.95
M 65 102.6
Q 67.49453125 105.098046875 67.5 108.55 67.501171875 111.97890625 65.05 114.4
L 65 114.45
Q 62.57890625 116.901171875 59.15 116.9 55.698046875 116.89453125 53.2 114.4 50.7974609375 111.9939453125 50.8 108.55 50.80390625 105.1185546875 53.2 102.65 53.2251953125 102.6251953125 53.25 102.6 55.718359375 100.20390625 59.15 100.2 62.5939453125 100.1974609375 65 102.6
M 127.05 96.95
L 127 97
Q 122.2458984375 101.8166015625 122.25 108.55 122.252734375 115.30625 127 120.05 131.851953125 124.90546875 138.6 124.9 145.3357421875 124.8986328125 150.1 120.1 150.1251953125 120.0751953125 150.15 120.05 154.9486328125 115.2857421875 154.95 108.55 154.95546875 101.801953125 150.1 96.95 145.35625 92.202734375 138.6 92.2 131.8666015625 92.1958984375 127.05 96.95
M 144.45 102.6
Q 146.94453125 105.098046875 146.95 108.55 146.951171875 111.97890625 144.5 114.4
L 144.45 114.45
Q 142.02890625 116.901171875 138.6 116.9 135.148046875 116.89453125 132.65 114.4 130.2474609375 111.9939453125 130.25 108.55 130.25390625 105.1185546875 132.65 102.65 132.6751953125 102.6251953125 132.7 102.6 135.168359375 100.20390625 138.6 100.2 142.0439453125 100.1974609375 144.45 102.6
M 162.1 154.8
Q 163.2982421875 153.655078125 163.3 152
L 163.3 139.2
Q 163.3 125.2 149.3 125.2
L 128.8 125.2
Q 114.8 125.2 114.8 139.2
L 114.8 152
Q 114.8017578125 153.655078125 115.95 154.8 117.144921875 155.9982421875 118.8 156
L 159.3 156
Q 160.955078125 155.9982421875 162.1 154.8
M 131.05 138.95
Q 131.053515625 137.9107421875 130.3 137.15 129.5890625 136.4462890625 128.55 136.45 127.5107421875 136.4462890625 126.75 137.15 126.0462890625 137.9107421875 126.05 138.95
L 126.05 148 122.8 148 122.8 139.2
Q 122.8 133.2 128.8 133.2
L 149.3 133.2
Q 155.3 133.2 155.3 139.2
L 155.3 148 152.3 148 152.3 139.45
Q 152.303515625 138.4107421875 151.55 137.65 150.8390625 136.9462890625 149.8 136.95 148.7607421875 136.9462890625 148 137.65 147.2962890625 138.4107421875 147.3 139.45
L 147.3 148 131.05 148 131.05 138.95 Z"/>

<path fill="#D14140" stroke="none" d="
M 76.85 60.1
Q 75.908203125 59.7533203125 74.95 60.2 60.125 67.28828125 49.2 84.05 48.636328125 84.9548828125 48.85 85.95 49.073046875 86.9837890625 49.95 87.55 50.8169921875 88.115625 51.8 87.9 52.8318359375 87.6890625 53.4 86.8 63.475 71.311328125 77.1 64.7 78.0546875 64.248828125 78.4 63.25 78.7470703125 62.3056640625 78.3 61.35 77.84921875 60.4427734375 76.85 60.1
M 114.15 60.7
Q 114.6765625 61.602734375 115.65 61.85 123.508203125 63.943359375 132.05 69.65
L 117.35 84.15
Q 116.606640625 84.8998046875 116.6 85.9 116.5916015625 86.958984375 117.3 87.7 118.0609375 88.4455078125 119.1 88.45
L 148.8 88.45
Q 149.8390625 88.453515625 150.55 87.7 151.303515625 86.9890625 151.3 85.95
L 151.3 56.7
Q 151.3033203125 55.6787109375 150.55 54.95 149.837109375 54.208984375 148.8 54.2 147.77734375 54.1982421875 147.05 54.9
L 135.7 66.1
Q 125.88046875 59.3548828125 116.9 57 115.93515625 56.769140625 115.05 57.3 114.1466796875 57.8259765625 113.85 58.8 113.61875 59.8142578125 114.15 60.7
M 146.3 83.45
L 125.2 83.45 146.3 62.65 146.3 83.45
M 114 48.9
Q 110.45 38.9 98.85 37.85
L 98.85 31.95 92.85 31.95 92.85 37.9
Q 86.65 38.65 82.75 42.8 78.85 46.95 78.85 52.8 78.85 57.8 81.9 61.55 85.05 65.3 95.7 67.5 100.6 68.45 102.3 69.65 104 70.8 104 72.9 104 74.95 102.1 76.45 100.2 77.9 96.35 77.9 88.45 77.9 86.7 71.25
L 76.35 73.6
Q 79.3 85.25 92.85 86.7
L 92.85 93.8 98.85 93.8 98.85 86.7
Q 107.15 85.9 111.25 81.3 115.35 76.7 115.35 71 115.35 66.8 113.05 63.5 110.7 60.15 107.3 58.65 103.9 57.15 96.65 55.65 92.25 54.8 91.05 53.65 89.8 52.45 89.8 50.7 89.8 46.45 96.4 46.45 102.65 46.45 104.55 52.05
L 114 48.9 Z"/>
</g>
</defs>

<g transform="matrix( 1, 0, 0, 1, 0,0) ">
<use xlink:href="#Layer0_0_FILL"/>
</g>
</svg>
