
<svg xmlns="http://www.w3.org/2000/svg" version="1.1" xmlns:xlink="http://www.w3.org/1999/xlink" preserveAspectRatio="none" x="0px" y="0px" width="200px" height="200px" viewBox="0 0 200 200">
<defs>
<g id="Layer1_0_FILL">
<path fill="#0053A3" stroke="none" d="
M 68.05 100.45
L 68.05 106.45 90.9 106.45
Q 92.683984375 103.3189453125 95.1 100.45
L 68.05 100.45
M 68.05 122.95
L 68.05 128.95 86.15 128.95
Q 86.05 127.34921875 86.05 125.7 86.05 124.3078125 86.1 122.95
L 68.05 122.95
M 139.95 50.55
L 139.95 88.55
Q 145.286328125 90.602734375 149.95 94.25
L 149.95 50.55
Q 149.95 35.55 134.95 35.55
L 55.55 35.55
Q 40.55 35.55 40.55 50.55
L 40.55 144.75
Q 40.55 159.75 55.55 159.75
L 105.2 159.75
Q 101.20546875 157.290234375 97.65 153.75 95.723828125 151.815625 94.1 149.75
L 55.55 149.75
Q 50.55 149.75 50.55 144.75
L 50.55 50.55
Q 50.55 45.55 55.55 45.55
L 134.95 45.55
Q 139.95 45.55 139.95 50.55
M 110.05 76.45
L 110.05 82.45 130.05 82.45 130.05 76.45 110.05 76.45
M 110.05 58.7
L 110.05 64.7 130.05 64.7 130.05 58.7 110.05 58.7 Z"/>

<path fill="#D14140" stroke="none" d="
M 85.75 68.95
Q 88 65.95 88 61.7 88 57.45 85.75 54.45 83.5 51.45 80.35 51.45 77.2 51.45 74.95 54.45 72.7 57.45 72.7 61.7 72.7 65.95 74.95 68.95 75.4080078125 69.5607421875 75.9 70.05 78.0703125 73.3953125 73.25 74.75 72.7640625 74.8974609375 72.3 75 70.0494140625 75.666796875 68.1 76.7 63.15 79.4 63.15 83.2 63.15 84.1349609375 63.45 85
L 96.85 85
Q 97.15 84.1349609375 97.15 83.2 97.15 79.4 92.15 76.7 90.9103515625 76.036328125 89.55 75.55 88.9115234375 75.3171875 88.25 75.1 82.7865234375 73.1533203125 84.4 70.4 85.1140625 69.7978515625 85.75 68.95
M 160.5 125.7
Q 160.5 111.3 150.3 101.1 140.1 90.9 125.7 90.9 111.3 90.9 101.1 101.1 90.9 111.3 90.9 125.7 90.9 140.1 101.1 150.3 111.3 160.5 125.7 160.5 140.1 160.5 150.3 150.3 160.5 140.1 160.5 125.7
M 142.05 107.5
L 149.6 114.05 120.45 147.7 101.45 130.35 108.2 122.95 119.6 133.4 142.05 107.5 Z"/>

<path fill="#FFFFFF" stroke="none" d="
M 149.6 114.05
L 142.05 107.5 119.6 133.4 108.2 122.95 101.45 130.35 120.45 147.7 149.6 114.05 Z"/>
</g>
</defs>

<g transform="matrix( 1, 0, 0, 1, 0,0) ">
<use xlink:href="#Layer1_0_FILL"/>
</g>
</svg>
